<svg width="56" height="69" viewBox="0 0 56 69" fill="none" xmlns="http://www.w3.org/2000/svg">
    <path
        d="M0 0H31.5C45.031 0 56 11.033 56 24.6429C56 38.2527 45.031 49.2857 31.5 49.2857H9.8V39.4286H31.5C39.6186 39.4286 46.2 32.8088 46.2 24.6429C46.2 16.4769 39.6186 9.85714 31.5 9.85714H0V0Z"
        fill="#2F2E41" />
    <path
        d="M39.6111 69L31.3879 59.1428H31.4999C35.3963 59.1428 39.1409 58.4894 42.6314 57.2854L52.4041 69H39.6111Z"
        fill="#2F2E41" />
    <path
        d="M31.5 19.7143C34.2062 19.7143 36.4 21.9209 36.4 24.6429C36.4 27.3648 34.2062 29.5714 31.5 29.5714H9.8V59.1429H20.3834L28.6057 69H0V19.7143H31.5Z"
        fill="#38BDF8" />
</svg>