<svg width="16" height="20" viewBox="0 0 16 20" fill="none" xmlns="http://www.w3.org/2000/svg">
<path d="M0 0H9C12.866 0 16 3.19797 16 7.14286C16 11.0877 12.866 14.2857 9 14.2857H2.8V11.4286H9C11.3196 11.4286 13.2 9.50979 13.2 7.14286C13.2 4.77592 11.3196 2.85714 9 2.85714H0V0Z" fill="#2F2E41"/>
<path d="M9 5.71429H0V20H2.8V8.57143H9C9.7732 8.57143 10.4 7.93184 10.4 7.14286C10.4 6.35388 9.7732 5.71429 9 5.71429Z" fill="#38BDF8"/>
<path d="M5.82369 17.1429L8.17317 20L2.8 20L2.80001 17.1429H5.82369Z" fill="#38BDF8"/>
<path d="M11.3175 20L8.96797 17.1429H8.99998C10.1132 17.1429 11.1831 16.9534 12.1804 16.6045L14.9726 20H11.3175Z" fill="#2F2E41"/>
</svg>
