<svg width="32" height="39" viewBox="0 0 32 39" fill="none" xmlns="http://www.w3.org/2000/svg">
<path d="M0 0H18C25.732 0 32 6.23603 32 13.9286C32 21.6211 25.732 27.8571 18 27.8571H5.6V22.2857H18C22.6392 22.2857 26.4 18.5441 26.4 13.9286C26.4 9.31305 22.6392 5.57143 18 5.57143H0V0Z" fill="#2F2E41"/>
<path d="M18 11.1429H0V39H5.6V16.7143H18C19.5464 16.7143 20.8 15.4671 20.8 13.9286C20.8 12.3901 19.5464 11.1429 18 11.1429Z" fill="#38BDF8"/>
<path d="M11.6474 33.4286L16.3463 39L5.6 39L5.60002 33.4286H11.6474Z" fill="#38BDF8"/>
<path d="M22.6349 39L17.9359 33.4286H18C20.2265 33.4286 22.3662 33.0592 24.3608 32.3787L29.9452 39H22.6349Z" fill="#2F2E41"/>
</svg>
