<svg width="24" height="29" viewBox="0 0 24 29" fill="none" xmlns="http://www.w3.org/2000/svg">
<path d="M0 0H13.5C19.299 0 24 4.63705 24 10.3571C24 16.0772 19.299 20.7143 13.5 20.7143H4.2V16.5714H13.5C16.9794 16.5714 19.8 13.7892 19.8 10.3571C19.8 6.92509 16.9794 4.14286 13.5 4.14286H0V0Z" fill="#2F2E41"/>
<path d="M13.5 8.28571H0V29H4.2V12.4286H13.5C14.6598 12.4286 15.6 11.5012 15.6 10.3571C15.6 9.21312 14.6598 8.28571 13.5 8.28571Z" fill="#38BDF8"/>
<path d="M8.73554 24.8571L12.2598 29L4.2 29L4.20001 24.8571H8.73554Z" fill="#38BDF8"/>
<path d="M16.9762 29L13.452 24.8571H13.5C15.1698 24.8571 16.7747 24.5825 18.2706 24.0765L22.4589 29H16.9762Z" fill="#2F2E41"/>
</svg>
