<svg width="40" height="49" viewBox="0 0 40 49" fill="none" xmlns="http://www.w3.org/2000/svg">
<path d="M0 0H22.5C32.165 0 40 7.83502 40 17.5C40 27.165 32.165 35 22.5 35H7V28H22.5C28.299 28 33 23.299 33 17.5C33 11.701 28.299 7 22.5 7H0V0Z"/>
<path d="M22.5 14H0V49H7V21H22.5C24.433 21 26 19.433 26 17.5C26 15.567 24.433 14 22.5 14Z" />
<path d="M14.5592 42L20.4329 49L7 49L7.00002 42H14.5592Z"/>
<path d="M28.2936 49L22.4199 42H22.5C25.2831 42 27.9578 41.5359 30.451 40.681L37.4315 49H28.2936Z"/>
<style>
        path { fill: #000; }
        @media (prefers-color-scheme: dark) {
            path { fill: #38BDF8; }
        }
    </style>
</svg>
